<?xml version="1.0" standalone="no"?><!DOCTYPE svg PUBLIC "-//W3C//DTD SVG 1.1//EN" "http://www.w3.org/Graphics/SVG/1.1/DTD/svg11.dtd"><svg class="icon" width="200px" height="200.00px" viewBox="0 0 1024 1024" version="1.1" xmlns="http://www.w3.org/2000/svg"><path fill="#1296db" d="M958.27229227 430.9683392L610.41695147 70.00048853c-25.88773653-26.86901867-60.48476373-41.6548384-97.47332694-41.6548384-36.96564053 0-71.58558933 14.78581973-97.47441813 41.6548384l-36.4155104 37.77773654c-5.5504128-5.3593952-13.06339093-8.70929067-21.3895552-8.70929067L169.65632213 99.06893333c-17.035456 0-30.83999253 13.8056288-30.83999253 30.81707094l0 227.19798933-71.17845013 73.88325333c-39.3342528 40.79362453-34.0938336 73.0209472-27.46717547 88.59703254 6.60264427 15.57499307 26.17480853 41.70286613 82.85451093 41.70286613l19.21195947 0 0 401.49841707c0 17.01035093 13.8056288 30.81488747 30.81597973 30.81488746l679.77766827 0c17.0343648 0 30.81597973-13.80453653 30.81597973-30.81488746L883.64680107 561.2682368l19.21305173 0c56.6807936 0 76.2507744-26.127872 82.879616-41.70286613C992.36721813 503.9892864 997.58362347 471.7368576 958.27229227 430.9683392zM200.47339307 160.7030752l126.3758592 0 0 1.26835413-126.3758592 131.13600747L200.47339307 160.7030752zM620.65765333 931.94849067l-92.0669952 0L528.5906592 713.91495893l92.0669952 0L620.65765333 931.94849067zM822.01593387 931.94849067L682.2896128 931.94849067 682.2896128 683.0967968c0-17.01144213-13.78161493-30.81488747-30.81488747-30.81488747L497.7495744 652.28190827c-17.01035093 0-30.83999253 13.80344533-30.83999253 30.81488746l0 248.85169494L203.870224 931.94849067 203.870224 561.2682368l618.14570987 0L822.01593387 931.94849067zM902.860944 499.63409493L123.02521387 499.63409493c-14.66684267 0-22.56185493-2.70371093-25.57665174-4.4261408 0.86121493-3.3258816 4.37920427-10.909808 14.57078827-21.4856096l347.85643307-360.9438368c28.28036267-29.40463573 77.83130453-29.40463573 106.13349866 0l347.88153814 360.9438368c10.191584 10.5758016 13.68446933 18.159728 14.5456832 21.4856096C925.447904 496.930384 917.55289173 499.63409493 902.860944 499.63409493z" /></svg>