<?xml version="1.0" standalone="no"?><!DOCTYPE svg PUBLIC "-//W3C//DTD SVG 1.1//EN" "http://www.w3.org/Graphics/SVG/1.1/DTD/svg11.dtd"><svg class="icon" width="200px" height="200.00px" viewBox="0 0 1024 1024" version="1.1" xmlns="http://www.w3.org/2000/svg"><path fill="#1296db" d="M812.860621 771.6864c-118.5792 0-211.3536-157.2864-211.3536-357.9904S694.281421 55.7056 812.860621 55.7056 1024.009421 212.992 1024.009421 413.696s-92.7744 357.9904-211.1488 357.9904z m0-675.84c-92.3648 0-170.3936 145.2032-170.3936 317.0304s78.0288 317.0304 170.3936 317.0304S983.049421 585.5232 983.049421 413.696 905.020621 96.6656 812.860621 96.6656z"  /><path fill="#1296db" d="M221.398221 968.2944a35.84 35.84 0 0 1-18.2272-5.7344l-93.184-54.6816-53.0432 40.96A35.4304 35.4304 0 0 1 0.009421 919.9616v-593.92A307.2 307.2 0 0 1 109.782221 88.2688a140.288 140.288 0 0 1 90.5216-32.3584l585.9328 1.2288a22.7328 22.7328 0 0 1 22.1184 17.2032 22.528 22.528 0 0 1-11.264 25.6 298.3936 298.3936 0 0 0-113.2544 107.52 293.6832 293.6832 0 0 0-40.96 122.88V911.36a36.0448 36.0448 0 0 1-22.3232 34.816 35.4304 35.4304 0 0 1-38.7072-8.192L552.969421 909.312l-106.496 47.9232a35.6352 35.6352 0 0 1-34.2016-2.8672l-70.8608-47.3088-103.8336 56.9344a36.0448 36.0448 0 0 1-16.1792 4.3008z m-111.8208-102.4a33.9968 33.9968 0 0 1 18.0224 5.12l93.7984 55.7056 104.0384-56.9344a35.2256 35.2256 0 0 1 36.6592 1.6384l71.0656 47.3088 107.52-48.3328a35.84 35.84 0 0 1 40.96 7.5776l20.48 21.7088V329.3184a340.5824 340.5824 0 0 1 46.4896-143.36 335.4624 335.4624 0 0 1 77.824-88.4736H200.099021a98.9184 98.9184 0 0 0-63.8976 22.528A262.3488 262.3488 0 0 0 40.969421 325.632v583.0656l47.104-35.6352a35.0208 35.0208 0 0 1 21.504-7.3728zM786.441421 98.0992z"  /><path fill="#1296db" d="M438.281421 668.4672h-286.72a20.48 20.48 0 0 1 0-40.96h286.72a20.48 20.48 0 0 1 0 40.96z"  /></svg>