<?xml version="1.0" standalone="no"?><!DOCTYPE svg PUBLIC "-//W3C//DTD SVG 1.1//EN" "http://www.w3.org/Graphics/SVG/1.1/DTD/svg11.dtd"><svg class="icon" width="200px" height="200.00px" viewBox="0 0 1024 1024" version="1.1" xmlns="http://www.w3.org/2000/svg"><path fill="#1296db" d="M903.2256 274.59328L763.21536 134.35264a11.64672 11.64672 0 0 0-16.4928 0c-4.55808 4.56064-4.55808 11.9616 0 16.52224l23.0912 23.1296-143.97824 143.0336L492.97664 183.9616a11.64928 11.64928 0 0 0-16.49536 0c-4.55552 4.56064-4.55552 11.96032 0 16.52096l50.90944 50.99264-306.97216 305.13536-0.0384 0.03456c-0.00896 0.01024-0.01664 0.02048-0.0256 0.02816l-51.31776 51.01056c-19.31392 19.19488-30.39104 44.2304-30.39104 68.6848 0 19.04 6.89152 36.3712 19.4048 48.80256l41.952 41.7024a11.5776 11.5776 0 0 0-1.57568 1.30048c-6.14784 6.10816-9.53088 14.23872-9.53088 22.89024 0 4.57856 0.95744 9.00608 2.75968 13.0688l-38.77376 38.45376c-4.576 4.54272-4.61312 11.93728-0.08192 16.5248a11.61984 11.61984 0 0 0 8.29056 3.46112c2.96448 0 5.93152-1.1264 8.20864-3.38048l38.89152-38.57152a32.43264 32.43264 0 0 0 13.13152 2.76224c8.64256 0 16.77568-3.35232 22.8992-9.4336a11.58016 11.58016 0 0 0 1.41824-1.71392l42.10176 41.8496c12.48512 12.4096 29.87648 19.24352 48.96512 19.24352 24.54272 0 49.6832-10.99904 68.97408-30.17344l357.57824-355.4304 63.03488 63.13856a11.61472 11.61472 0 0 0 8.24576 3.42272 11.61984 11.61984 0 0 0 8.24704-3.42272c4.5568-4.56064 4.5568-11.96032 0-16.52224l-127.33312-127.54304L859.4304 263.76448l27.3024 27.3472a11.61984 11.61984 0 0 0 8.24832 3.42272 11.61216 11.61216 0 0 0 8.24576-3.42272c4.5568-4.55808 4.5568-11.95776-0.00128-16.5184zM389.24544 826.5728c-14.95808 14.86336-34.10816 23.38816-52.54272 23.38816-13.07904 0-24.32896-4.30848-32.53376-12.4608L174.48064 708.58624c-8.18176-8.13184-12.50816-19.26912-12.50816-32.21632 0-18.26944 8.56448-37.25952 23.4944-52.09728l43.19488-42.93632 28.49024 28.3136a11.62496 11.62496 0 0 0 8.21632 3.38816 11.6224 11.6224 0 0 0 8.2816-3.45344c4.53504-4.5824 4.50816-11.97824-0.06656-16.52608l-28.36096-28.1856 15.24608-15.1552 28.48768 28.31488a11.62496 11.62496 0 0 0 8.21504 3.38688 11.62624 11.62624 0 0 0 8.28288-3.45344c4.53504-4.58112 4.50688-11.97568-0.06656-16.52352l-28.3584-28.1856 15.2512-15.15904 28.48512 28.3136a11.61472 11.61472 0 0 0 8.21632 3.39072c2.99904 0 5.99936-1.152 8.27776-3.45344 4.54016-4.5824 4.51072-11.97824-0.06144-16.52224l-28.36096-28.18816 118.44608-117.73568L630.15296 587.1104 389.24544 826.5728z m257.46816-255.92064L443.84128 367.44576l96.75008-96.17024 203.65312 202.43072-97.53088 96.94592z m52.37632-180.51072l-38.30912-38.10048-18.44992-18.48064 142.02112-141.08928 56.82688 56.5184-142.08896 141.152z"  /></svg>