<?xml version="1.0" standalone="no"?><!DOCTYPE svg PUBLIC "-//W3C//DTD SVG 1.1//EN" "http://www.w3.org/Graphics/SVG/1.1/DTD/svg11.dtd"><svg class="icon" width="200px" height="199.03px" viewBox="0 0 1029 1024" version="1.1" xmlns="http://www.w3.org/2000/svg"><path fill="#1296db" d="M16.911643 290.592766l463.379026 170.21569v538.957159L16.911643 829.549926V290.592766M0 266.358382v574.995871l497.202312 182.645747v-574.995871L0 266.358382zM220.409447 146.015128l440.396102 186.028076-142.463683 53.998877L62.167201 213.796994l158.259157-67.781866m0-18.382956L16.911643 214.77787l501.430223 189.410404 187.92218-71.231841L220.375623 127.632172zM518.324955 18.399868l454.635706 195.397126-130.946854 49.635673L389.086177 73.768588l129.238778-55.351808M518.341866 0L345.724723 73.937704l495.984674 207.691891L1018.080925 214.77787 518.341866 0z"  /><path fill="#1296db" d="M368.876763 82.410438l450.35706 189.647167-136.98431 51.901833-439.702725-187.41483 126.38071-54.117259m0-18.366044L199.455921 136.595343l482.438447 205.594847 182.865599-69.337737L368.826028 64.044393zM1013.007432 290.592766v538.95716L549.628406 999.765615V460.808456l161.252519-59.190752V571.613543a16.911643 16.911643 0 0 0 23.896152 15.406507l126.837324-57.499588a16.911643 16.911643 0 0 0 9.927135-15.406507V342.562246L1013.007432 290.592766m16.911643-24.234384l-175.323006 64.399537V514.113955l-126.837324 57.499588V377.349496L532.716763 449.004129v574.995871l497.202312-182.645747v-574.995871z"  /><path fill="#1296db" d="M856.25341 348.176912l-1.572782 166.596597-126.465269 56.992238-1.572783-176.033294 129.610834-47.623188m17.148407-24.318943l-163.772354 60.171627 1.911016 213.813906 159.967234-72.094336 1.911015-201.874285z"  /></svg>