<?xml version="1.0" standalone="no"?><!DOCTYPE svg PUBLIC "-//W3C//DTD SVG 1.1//EN" "http://www.w3.org/Graphics/SVG/1.1/DTD/svg11.dtd"><svg class="icon" width="200px" height="200.00px" viewBox="0 0 1024 1024" version="1.1" xmlns="http://www.w3.org/2000/svg"><path fill="#1296db" d="M512 938.666667C276.352 938.666667 85.333333 747.648 85.333333 512S276.352 85.333333 512 85.333333s426.666667 191.018667 426.666667 426.666667-191.018667 426.666667-426.666667 426.666667z m0-42.666667c212.074667 0 384-171.925333 384-384S724.074667 128 512 128 128 299.925333 128 512s171.925333 384 384 384z m-85.333333-277.333333v106.730666c0 11.733333-9.472 21.269333-21.333334 21.269334-11.776 0-21.333333-9.664-21.333333-21.269334V341.482667c0-11.861333 9.6-21.482667 21.482667-21.482667H533.333333c82.474667 0 149.333333 67.029333 149.333334 149.333333 0 82.474667-67.029333 149.333333-149.333334 149.333334h-106.666666z m0-42.666667h106.666666c58.816 0 106.666667-47.829333 106.666667-106.666667 0-58.816-47.829333-106.666667-106.666667-106.666666h-106.666666v213.333333z"  /></svg>