<?xml version="1.0" standalone="no"?><!DOCTYPE svg PUBLIC "-//W3C//DTD SVG 1.1//EN" "http://www.w3.org/Graphics/SVG/1.1/DTD/svg11.dtd"><svg class="icon" width="200px" height="200.00px" viewBox="0 0 1024 1024" version="1.1" xmlns="http://www.w3.org/2000/svg"><path fill="#1296db" d="M274.773333 858.453333c-104.106667 0-187.733333-83.626667-187.733333-187.733333v-95.573333c0-10.24 6.826667-17.066667 17.066667-17.066667h341.333333c10.24 0 17.066667 6.826667 17.066667 17.066667v95.573333c0 104.106667-83.626667 187.733333-187.733334 187.733333z m-153.6-264.533333v78.506667c0 85.333333 68.266667 153.6 153.6 153.6s153.6-68.266667 153.6-153.6v-78.506667h-307.2zM749.226667 858.453333c-104.106667 0-187.733333-83.626667-187.733334-187.733333v-95.573333c0-10.24 6.826667-17.066667 17.066667-17.066667h341.333333c10.24 0 17.066667 6.826667 17.066667 17.066667v95.573333c0 104.106667-85.333333 187.733333-187.733333 187.733333z m-153.6-264.533333v78.506667c0 85.333333 68.266667 153.6 153.6 153.6s153.6-68.266667 153.6-153.6v-78.506667h-307.2z"  /><path fill="#1296db" d="M452.266667 674.133333l-11.946667-32.426666c46.08-17.066667 98.986667-17.066667 145.066667 0l-11.946667 32.426666c-39.253333-15.36-83.626667-15.36-121.173333 0zM104.106667 593.92c-3.413333 0-6.826667-1.706667-8.533334-3.413333-8.533333-5.12-10.24-15.36-5.12-23.893334l187.733334-290.133333c3.413333-5.12 8.533333-8.533333 13.653333-8.533333h92.16c10.24 0 17.066667 6.826667 17.066667 17.066666s-6.826667 17.066667-17.066667 17.066667h-81.92L119.466667 585.386667c-3.413333 5.12-10.24 8.533333-15.36 8.533333zM919.893333 593.92c-5.12 0-10.24-3.413333-13.653333-8.533333L723.626667 303.786667h-81.92c-10.24 0-17.066667-6.826667-17.066667-17.066667s6.826667-17.066667 17.066667-17.066667H733.866667c5.12 0 11.946667 3.413333 13.653333 8.533334l187.733333 290.133333c5.12 8.533333 3.413333 18.773333-5.12 23.893333-3.413333 0-6.826667 1.706667-10.24 1.706667zM269.653333 761.173333c-1.706667 0-5.12 0-6.826666-1.706666-3.413333-3.413333-3.413333-8.533333 0-11.946667l83.626666-83.626667c3.413333-3.413333 8.533333-3.413333 11.946667 0s3.413333 8.533333 0 11.946667l-83.626667 83.626667c-1.706667 1.706667-3.413333 1.706667-5.12 1.706666z"  /><path fill="#1296db" d="M769.706667 761.173333c-1.706667 0-5.12 0-6.826667-1.706666-3.413333-3.413333-3.413333-8.533333 0-11.946667l83.626667-83.626667c3.413333-3.413333 8.533333-3.413333 11.946666 0s3.413333 8.533333 0 11.946667l-83.626666 83.626667c-1.706667 1.706667-3.413333 1.706667-5.12 1.706666z"  /></svg>