<?xml version="1.0" standalone="no"?><!DOCTYPE svg PUBLIC "-//W3C//DTD SVG 1.1//EN" "http://www.w3.org/Graphics/SVG/1.1/DTD/svg11.dtd"><svg class="icon" width="200px" height="200.00px" viewBox="0 0 1024 1024" version="1.1" xmlns="http://www.w3.org/2000/svg"><path fill="#1296db" d="M888.921535 135.083581C843.919599 90.076528 784.084838 65.290005 720.438263 65.290005s-123.480312 24.786523-168.482249 69.788459L135.084605 551.954991C90.076528 596.957951 65.290005 656.791687 65.290005 720.438263c0 63.645552 24.786523 123.480312 69.789483 168.477133 45.001937 45.007053 104.835673 69.793576 168.482249 69.793576 63.645552 0 123.480312-24.786523 168.482249-69.788459l416.871409-416.876526c45.007053-45.00296 69.793576-104.836697 69.793576-168.483272C958.708971 239.915162 933.922449 180.080401 888.921535 135.083581zM414.609902 831.490521c-29.659507 29.659507-69.099774 45.998637-111.048165 45.998637-41.949414 0-81.388658-16.33913-111.053282-46.00273-29.659507-29.659507-45.998637-69.099774-45.998637-111.048165 0-41.949414 16.33913-81.388658 46.003753-111.048165l169.973206-169.975253c46.831608 30.604018 161.736615 113.150036 222.664266 221.531466L414.609902 831.490521zM831.486428 414.608879 637.012202 609.085152c-65.002456-105.065917-168.45462-183.976128-223.206618-220.989113l195.584514-195.58656c29.659507-29.659507 69.099774-45.998637 111.048165-45.998637s81.388658 16.33913 111.048165 45.998637l0.005117 0.005117c29.659507 29.658484 45.997614 69.098751 45.997614 111.047142C877.489158 345.510128 861.151052 384.949372 831.486428 414.608879zM628.545366 295.435663c13.875009 13.880125 13.875009 36.377512 0 50.256614l-48.511877 48.5129c-6.940063 6.934946-16.037255 10.404977-25.128307 10.404977-9.091052 0-18.188244-3.470031-25.128307-10.404977-13.875009-13.880125-13.875009-36.376489 0-50.256614l48.511877-48.5129C592.168878 281.56577 614.665241 281.56577 628.545366 295.435663zM710.380186 213.617216c7.510044 7.510044 11.877515 17.97028 11.877515 28.731368 0 10.657734-4.367471 21.11797-11.877515 28.732391-7.516184 7.511067-18.074657 11.877515-28.732391 11.877515-10.662851 0-21.11797-4.366448-28.732391-11.877515-7.515161-7.614421-11.877515-18.074657-11.877515-28.732391 0-10.762111 4.362354-21.221324 11.877515-28.731368 7.614421-7.614421 18.069541-11.878538 28.732391-11.878538C692.305529 201.738677 702.865026 206.002794 710.380186 213.617216z" /></svg>