<?xml version="1.0" standalone="no"?><!DOCTYPE svg PUBLIC "-//W3C//DTD SVG 1.1//EN" "http://www.w3.org/Graphics/SVG/1.1/DTD/svg11.dtd"><svg class="icon" width="200px" height="200.00px" viewBox="0 0 1024 1024" version="1.1" xmlns="http://www.w3.org/2000/svg"><path fill="#1296db" d="M626.89 466.707h243.703c16.688 0 31.13 13.48 31.13 31.13v9.893c0 141.624-96.443 263.073-233.756 316.362V896c0 18.373-12.758 31.13-31.13 31.13H389.53c-18.373 0-31.131-12.757-31.131-31.13v-70.972c-138.413-52.633-236.124-174.004-236.124-314.825v-12.365c0-15.9 15.23-31.13 31.13-31.13h297.702c0.165-0.93 0.5-1.844 1.012-2.698l197.775-329.153c2.266-3.771 7.206-5.003 10.978-2.737l41.144 24.722c3.771 2.266 5.003 7.206 2.737 10.978l-179.59 298.887h5.268a7.926 7.926 0 0 1 2.021-2.707l289.809-251.927c3.32-2.886 8.4-2.531 11.286 0.79l31.49 36.226c2.887 3.32 2.532 8.4-0.789 11.286L626.891 466.707zM420.662 843.365v21.504h185.045v-22.016c-30.04 6.59-61.43 10.086-93.706 10.086-31.415 0-62.007-3.317-91.339-9.574zM184.957 531.442C196.216 675.629 339.936 790.678 512 790.678c171.21 0 313.326-114.318 326.933-259.236H184.957z"  /></svg>