<?xml version="1.0" standalone="no"?><!DOCTYPE svg PUBLIC "-//W3C//DTD SVG 1.1//EN" "http://www.w3.org/Graphics/SVG/1.1/DTD/svg11.dtd"><svg class="icon" width="200px" height="200.00px" viewBox="0 0 1024 1024" version="1.1" xmlns="http://www.w3.org/2000/svg"><path fill="#1296db" d="M931.28 594.32c0-52.64-27.2-100.07-70.39-130.26-16.32-12.37-36.42-20-58.44-20h-38.44V284.75c0-17.63-14.29-31.93-31.93-31.93-17.63 0-31.93 14.29-31.93 31.93v159.31h-148.4V284.75c0-17.63-14.29-31.93-31.93-31.93-17.63 0-31.93 14.29-31.93 31.93v159.31h-148.4V284.75c0-17.63-14.29-31.93-31.93-31.93-17.63 0-31.93 14.29-31.93 31.93v159.31h-55.56c-10.48 0-20.39 2.1-29.85 5.18-58.44 25.81-97.31 81.22-97.31 145.08 0 34.7 11.13 66.8 29.85 93.14v172.35c0 53.66 43.66 97.31 97.32 97.31h582.37c53.66 0 97.32-43.65 97.32-97.31V689.69c19.71-26.75 31.51-59.67 31.51-95.37z m-128.83-86.4c18.46 0 33.46 15.01 33.46 33.46v124.23c-17.38 16.08-40.43 26.14-65.92 26.14-53.73 0-97.44-43.71-97.44-97.43H608.7c0 53.72-43.71 97.43-97.43 97.43-49.99 0-90.84-38-96.33-86.55 0.24-3.61 0.55-7.21 0.55-10.89h-65.5c0 3.67 0.31 7.27 0.55 10.89-5.5 48.55-46.34 86.55-96.33 86.55-26.27 0-50.04-10.56-67.58-27.52V541.38c0-18.46 15.01-33.46 33.46-33.46h582.36z m0 385.35H220.08c-18.46 0-33.46-15.01-33.46-33.45V740.57c20.59 9.56 43.43 15.04 67.58 15.04 52.49 0 99.06-25.32 128.53-64.26 29.47 38.94 76.04 64.26 128.53 64.26 52.99 0 99.94-25.8 129.36-65.37 29.42 39.57 76.38 65.37 129.37 65.37 23.5 0 45.77-5.17 65.92-14.24v118.45c0.01 18.45-15 33.45-33.46 33.45zM313.75 222.31c44.35-4.31 45.16-30.44 47.67-63.78 3.68-48.91-55.36-114.97-61.17-82.98-5.82 31.98-46.04 81.41-46.04 81.41s-5.94 9.2-1.28 26.16c6.78 24.69 35.34 41.66 60.82 39.19zM526.62 222.31c44.35-4.31 45.16-30.44 47.67-63.78 3.68-48.91-55.36-114.97-61.17-82.98-5.82 31.98-46.04 81.41-46.04 81.41s-5.94 9.2-1.28 26.16c6.77 24.69 35.33 41.66 60.82 39.19zM739.48 222.31c44.35-4.31 45.16-30.44 47.67-63.78 3.68-48.91-55.36-114.97-61.17-82.98-5.82 31.98-46.04 81.41-46.04 81.41s-5.94 9.2-1.28 26.16c6.78 24.69 35.33 41.66 60.82 39.19z"  /></svg>