<?xml version="1.0" standalone="no"?><!DOCTYPE svg PUBLIC "-//W3C//DTD SVG 1.1//EN" "http://www.w3.org/Graphics/SVG/1.1/DTD/svg11.dtd"><svg class="icon" width="200px" height="200.00px" viewBox="0 0 1024 1024" version="1.1" xmlns="http://www.w3.org/2000/svg"><path fill="#1296db" d="M290.93 353.43c-5.12 0-10.24-1.95-14.14-5.86-28.85-28.85-28.85-75.79 0-104.63 13.25-13.25 13.25-34.81 0-48.06-7.81-7.81-7.81-20.47 0-28.28s20.47-7.81 28.28 0c28.85 28.85 28.85 75.78 0 104.63-13.25 13.25-13.25 34.81 0 48.06 7.81 7.81 7.81 20.47 0 28.28-3.9 3.9-9.02 5.86-14.14 5.86zM750.93 353.43c-5.12 0-10.24-1.95-14.14-5.86-28.85-28.85-28.85-75.79 0-104.63 13.25-13.25 13.25-34.81 0-48.06-7.81-7.81-7.81-20.47 0-28.28s20.47-7.81 28.28 0c28.85 28.85 28.85 75.78 0 104.63-13.25 13.25-13.25 34.81 0 48.06 7.81 7.81 7.81 20.47 0 28.28-3.9 3.9-9.02 5.86-14.14 5.86zM520.65 711.74c-11.4 0-22.78-0.22-34.14-0.66-11.04-0.43-19.64-9.72-19.22-20.76 0.43-11.04 9.72-19.65 20.76-19.22 52.5 2.02 105.48-0.85 157.46-8.55 54.27-16.82 100.28-45.38 133.1-82.63 35.24-40 55.43-89.1 60.01-145.94 0.14-1.7-0.58-2.87-1.21-3.55-0.6-0.65-1.66-1.44-3.28-1.44H207.38c-1.61 0-2.67 0.78-3.28 1.44-0.63 0.68-1.35 1.85-1.21 3.55 4.57 56.84 24.76 105.94 60.01 145.94 32.81 37.24 78.79 65.79 133.04 82.61l4.14 0.59c10.93 1.57 18.53 11.7 16.96 22.63-1.57 10.93-11.7 18.53-22.63 16.96l-5.69-0.81c-1.02-0.15-2.02-0.37-3.01-0.67-61.98-18.93-114.82-51.74-152.83-94.87-41.08-46.62-64.58-103.54-69.86-169.17-1-12.4 3.26-24.76 11.69-33.89 8.39-9.09 20.3-14.31 32.68-14.31h626.73c12.37 0 24.28 5.22 32.68 14.31 8.43 9.13 12.69 21.48 11.69 33.89-5.28 65.63-28.79 122.55-69.86 169.17-38 43.14-90.85 75.94-152.83 94.87-0.94 0.29-1.9 0.51-2.88 0.65-43.67 6.55-88.02 9.84-132.26 9.84z"  /><path fill="#1296db" d="M682.2 600.73c-7.15 0-14.06-3.84-17.66-10.58-5.21-9.74-1.53-21.86 8.22-27.06 20.39-10.89 45.38-32.52 48.7-73.69 0.89-11.01 10.54-19.21 21.54-18.33 11.01 0.89 19.22 10.53 18.33 21.54-3.72 46.17-28.48 83.73-69.72 105.76-3 1.6-6.23 2.36-9.41 2.36zM624.84 409.13c-9.86 0-18.44-7.29-19.79-17.32l-25.41-188.02c-0.37-2.72-2.72-4.78-5.47-4.78H467.33c-2.75 0-5.1 2.05-5.47 4.78l-19.6 145.04c-1.48 10.95-11.56 18.62-22.5 17.14-10.95-1.48-18.62-11.55-17.14-22.5l19.6-145.04c3.04-22.47 22.43-39.42 45.11-39.42h106.84c22.68 0 42.07 16.95 45.11 39.42l25.41 188.02c1.48 10.95-6.2 21.02-17.14 22.5-0.91 0.12-1.81 0.18-2.7 0.18zM523.35 871.43c-42.54 0-85.08-2.73-127.32-8.2-22.72-2.94-38.92-23.83-36.11-46.56l16.28-131.84c1.35-10.96 11.34-18.75 22.3-17.4 10.96 1.35 18.75 11.34 17.4 22.3l-16.28 131.84c-0.12 0.97 0.57 1.87 1.55 1.99a952.271 952.271 0 0 0 244.37 0 1.8 1.8 0 0 0 1.55-1.99l-16.28-131.84c-1.35-10.96 6.44-20.95 17.4-22.3 10.97-1.36 20.95 6.44 22.3 17.4l16.28 131.84c2.81 22.73-13.39 43.62-36.11 46.56-42.24 5.47-84.78 8.2-127.32 8.2z"  /></svg>