<?xml version="1.0" standalone="no"?><!DOCTYPE svg PUBLIC "-//W3C//DTD SVG 1.1//EN" "http://www.w3.org/Graphics/SVG/1.1/DTD/svg11.dtd"><svg class="icon" width="200px" height="200.00px" viewBox="0 0 1024 1024" version="1.1" xmlns="http://www.w3.org/2000/svg"><path fill="#1296db" d="M314.1 342.8m-32.1 0a32.1 32.1 0 1 0 64.2 0 32.1 32.1 0 1 0-64.2 0Z"  /><path fill="#1296db" d="M442.4 287.8m-22.9 0a22.9 22.9 0 1 0 45.8 0 22.9 22.9 0 1 0-45.8 0Z"  /><path fill="#1296db" d="M530.984636 370.136227a21.6 21.6 0 1 0 7.559512-42.533443 21.6 21.6 0 1 0-7.559512 42.533443Z"  /><path fill="#1296db" d="M648.448539 296.59016a27.6 27.6 0 1 0 9.659376-54.348288 27.6 27.6 0 1 0-9.659376 54.348288Z"  /><path fill="#1296db" d="M732.619699 382.263618a25.3 25.3 0 1 0 8.854428-49.819264 25.3 25.3 0 1 0-8.854428 49.819264Z"  /><path fill="#1296db" d="M937.6 406.9c-3.8-4-9.1-6.3-14.7-6.3h-39.1c-5.8-19.1-16.3-36.1-30.5-49.2 1-6.2 1.5-12.5 1.5-18.8 0-57.2-40.7-104.3-92.4-109.1-15.8-40.3-56.4-70.1-106-76.2-38.3-4.7-76.2 6.1-102.9 28.6-29-16.5-65.7-16.2-94.7 0.8-23.8-24.2-59.1-38.7-96.6-38.7-50.2 0-95.2 25.6-115.6 64.7-40.3 13.7-68.9 53.9-70.6 100.2-26.5 20.4-42.6 53.6-42.6 89.4 0 2.8 0.1 5.5 0.3 8.3H99.3c-5.6 0-10.9 2.3-14.7 6.3-3.8 4.1-5.7 9.5-5.4 15.1 9.5 154.4 100.6 291.2 238.7 360.2v47c0 28.5 23.2 51.7 51.7 51.7h282.9c28.5 0 51.7-23.2 51.7-51.7v-47C842.4 713.3 933.5 576.4 943 422c0.4-5.6-1.6-11-5.4-15.1z m-763.9-14.5c0-26 12.6-49.5 32.9-61.5 6.6-3.9 10.4-11 9.9-18.6l-0.1-1c-0.1-1.3-0.2-2.7-0.2-4 0-33.1 20.7-61.6 49.2-67.9 6.5-1.4 11.9-6.1 14.4-12.3 11.4-29.1 44.5-48.6 82.2-48.6 32 0 61.2 14.2 76.3 37.1 3.3 4.9 8.5 8.2 14.4 8.9 5.9 0.7 11.7-1.2 16.1-5.2 21-19.2 52-20.1 73.9-1.7 8.5 7.1 21.2 6.1 28.4-2.4 17.8-21 48.6-31.6 80.4-27.7 38.3 4.7 69.6 29.5 76.3 60.5 2.1 9.9 11.4 16.7 21.4 15.8 1.5-0.1 3.1-0.3 4.6-0.3 33.5 0 60.7 31 60.7 69.2 0 7.2-1 14.4-2.9 21.2-2.4 8.3 0.8 17.1 7.8 22 8.8 6.2 16 14.7 21.1 24.7H174.1c-0.3-2.7-0.4-5.4-0.4-8.2z m478.8 448.2H369.7c-6.3 0-11.4-5.1-11.4-11.4v-37h305.6v37c0 6.3-5.1 11.4-11.4 11.4z m23.1-89.4c-0.5 0.2-0.9 0.5-1.4 0.7H348c-0.4-0.2-0.9-0.5-1.4-0.7-124.7-57.6-209.5-175.3-225.3-310.3h779.5c-15.8 135-100.6 252.6-225.2 310.3z"  /><path fill="#1296db" d="M353.3 685c3.5 2.3 7.4 3.4 11.2 3.4 6.5 0 12.9-3.2 16.6-9 6.2-9.3 3.7-21.8-5.6-28-74.7-49.9-101.3-143-101.7-144.4-2.9-10.7-13.9-17-24.7-14.1-10.7 3-17 14.1-14.1 24.8 1.2 4.4 30.5 108.8 118.3 167.3z"  /></svg>