<?xml version="1.0" standalone="no"?><!DOCTYPE svg PUBLIC "-//W3C//DTD SVG 1.1//EN" "http://www.w3.org/Graphics/SVG/1.1/DTD/svg11.dtd"><svg class="icon" width="200px" height="200.00px" viewBox="0 0 1024 1024" version="1.1" xmlns="http://www.w3.org/2000/svg"><path fill="#1296db" d="M751.6672 303.6672a283.392 283.392 0 0 0-54.8864-97.8432l65.6384-81.4592 129.5872-24.32-11.3152-60.3648-151.8592 28.4672-77.056 95.5904a284.83584 284.83584 0 0 0-171.3152-56.9856c-124.8768 0-233.728 80.2816-271.36 197.5808-42.9568 5.4272-76.3392 42.1376-76.3392 86.5792 0 40.3456 27.5456 74.2912 64.768 84.2752l53.76 398.08c6.5536 48.5376 48.4352 85.0944 97.3824 85.0944h270.2848c48.9472 0 90.8288-36.608 97.3824-85.0944l53.7088-397.6704c37.9904-9.472 66.2528-43.776 66.2528-84.6848-0.0512-47.3088-37.7856-85.8112-84.6336-87.2448z m-67.0208-3.4304h-64l36.7104-45.5168c10.752 13.8752 19.968 29.0816 27.2896 45.5168z m-204.1856-132.096c49.2544 0 95.3344 15.9232 132.7104 43.4688l-71.424 88.6272H276.224c35.4816-79.4112 114.5856-132.096 204.2368-132.096zM220.0576 364.9536h528.8448c14.2848 0 25.9072 11.6224 25.9072 25.9072s-11.6224 25.9072-25.9072 25.9072H220.0576c-14.2848 0-25.9072-11.6224-25.9072-25.9072s11.6224-25.9072 25.9072-25.9072z m478.208 182.4768c-93.0816 43.8784-173.3632 15.7696-254.208-19.8144-68.9152-30.3104-141.056-10.9568-177.152 2.816l-7.0144-52.224h447.744l-9.3696 69.2224z m-79.36 349.44H348.6208c-18.3296 0-34.048-13.7216-36.5056-31.8976l-36.6592-271.4624c15.3088-7.1168 84.0704-35.9936 143.872-9.6256 56.832 25.0368 116.6336 47.7696 181.9648 47.7696 28.1088 0 57.1904-4.1984 87.552-14.2848l-33.4336 247.552c-2.4576 18.2272-18.176 31.9488-36.5056 31.9488z"  /></svg>