<?xml version="1.0" standalone="no"?><!DOCTYPE svg PUBLIC "-//W3C//DTD SVG 1.1//EN" "http://www.w3.org/Graphics/SVG/1.1/DTD/svg11.dtd"><svg class="icon" width="200px" height="200.00px" viewBox="0 0 1024 1024" version="1.1" xmlns="http://www.w3.org/2000/svg"><path fill="#1296db" d="M421.888 849.92q0 23.552-8.704 43.52t-24.064 35.328-35.84 24.064-43.008 8.704q-23.552 0-43.52-8.704t-35.328-24.064-24.064-35.328-8.704-43.52q0-22.528 8.704-43.008t24.064-35.84 35.328-24.064 43.52-8.704q22.528 0 43.008 8.704t35.84 24.064 24.064 35.84 8.704 43.008zM806.912 849.92q0 23.552-8.704 43.52t-24.064 35.328-35.84 24.064-43.008 8.704q-23.552 0-44.032-8.704t-35.84-24.064-24.064-35.328-8.704-43.52q0-22.528 8.704-43.008t24.064-35.84 35.84-24.064 44.032-8.704q22.528 0 43.008 8.704t35.84 24.064 24.064 35.84 8.704 43.008zM347.136 650.24q0 11.264-9.728 18.432t-24.064 7.168-24.064-7.168-9.728-18.432l0-448.512q0-11.264 9.728-20.48t24.064-9.216 24.064 7.68 9.728 19.968l0 450.56zM728.064 650.24q0 11.264-9.216 18.432t-23.552 7.168-24.064-7.168-9.728-18.432l0-452.608q0-12.288 9.728-18.944t24.064-6.656 23.552 6.656 9.216 18.944l0 452.608z" /></svg>