<?xml version="1.0" standalone="no"?><!DOCTYPE svg PUBLIC "-//W3C//DTD SVG 1.1//EN" "http://www.w3.org/Graphics/SVG/1.1/DTD/svg11.dtd"><svg class="icon" width="200px" height="200.00px" viewBox="0 0 1024 1024" version="1.1" xmlns="http://www.w3.org/2000/svg"><path fill="#1296db" d="M928.711111 338.488889l-213.333333-199.111111C699.733333 122.311111 676.977778 113.777778 654.222222 113.777778c-17.066667 0-32.711111 9.955556-39.822222 27.022222-21.333333 51.2-42.666667 86.755556-102.4 86.755556s-81.066667-35.555556-102.4-86.755556C402.488889 123.733333 386.844444 113.777778 369.777778 113.777778c-22.755556 0-45.511111 9.955556-62.577778 25.6L95.288889 337.066667c-28.444444 28.444444-28.444444 72.533333 0 100.977777l81.066667 81.066667c19.911111 19.911111 49.777778 25.6 73.955555 15.644445 4.266667-1.422222 5.688889 1.422222 5.688889 5.688888l-28.444444 284.444445c0 56.888889 28.444444 71.111111 71.111111 71.111111h426.666666c42.666667 0 71.111111-14.222222 71.111111-71.111111l-28.444444-284.444445c0-4.266667 1.422222-5.688889 5.688889-4.266666 25.6 8.533333 54.044444 4.266667 75.377778-15.644445l81.066666-81.066666c27.022222-28.444444 27.022222-73.955556-1.422222-100.977778zM888.888889 398.222222l-81.066667 81.066667c-5.688889 5.688889-14.222222 5.688889-19.911111 0-5.688889-5.688889-14.222222-9.955556-24.177778-9.955556-35.555556 0-52.622222 28.444444-52.622222 71.111111l28.444445 284.444445c1.422222 8.533333-7.111111 14.222222-15.644445 14.222222H300.088889c-8.533333 0-15.644444-7.111111-14.222222-15.644444L312.888889 540.444444c4.266667-36.977778-18.488889-71.111111-55.466667-71.111111-8.533333 0-15.644444 2.844444-21.333333 8.533334-5.688889 5.688889-14.222222 5.688889-19.911111 0l-81.066667-81.066667c-5.688889-5.688889-5.688889-14.222222 0-19.911111l200.533333-186.311111 8.533334-8.533334c7.111111-7.111111 17.066667-5.688889 22.755555 2.844445 34.133333 59.733333 69.688889 99.555556 143.644445 99.555555 73.955556 0 109.511111-39.822222 143.644444-99.555555 4.266667-8.533333 15.644444-9.955556 22.755556-2.844445l8.533333 8.533334 201.955556 187.733333c7.111111 5.688889 7.111111 14.222222 1.422222 19.911111z"  /><path fill="#1296db" d="M732.444444 398.222222h-113.777777c-15.644444 0-28.444444-12.8-28.444445-28.444444s12.8-28.444444 28.444445-28.444445h113.777777c15.644444 0 28.444444 12.8 28.444445 28.444445s-12.8 28.444444-28.444445 28.444444z"  /></svg>