<?xml version="1.0" standalone="no"?><!DOCTYPE svg PUBLIC "-//W3C//DTD SVG 1.1//EN" "http://www.w3.org/Graphics/SVG/1.1/DTD/svg11.dtd"><svg class="icon" width="200px" height="192.84px" viewBox="0 0 1062 1024" version="1.1" xmlns="http://www.w3.org/2000/svg"><path fill="#1296db" d="M688.249082 260.522652c-14.956096-22.478923-40.2113-36.002099-67.257653-36.002099L275.03096 224.520553c-27.046353 0-52.211999 13.523176-67.257653 36.002099L60.630401 481.371349c-1.970264 0.447787-1.791149 2.686724-1.791149 2.686724 118.48452 156.635998 234.819661 269.120168 351.244359 425.756166 8.597516 11.64247 21.672905 17.463705 34.748295 17.463705 12.896274 0 25.792549-5.731677 34.479622-17.105475 118.663635-156.725555 237.32727-269.299283 355.990904-426.114396 1.432919-1.880707 1.701592-2.238937 2.059822-2.686724C836.735351 481.371349 688.249082 260.522652 688.249082 260.522652zM448.055973 267.776806c12.090257 0 23.464055 6.806367 30.539094 18.090607l107.827182 172.935456L309.779255 458.802869l107.737625-172.935456C424.591919 274.583173 435.965716 267.776806 448.055973 267.776806L448.055973 267.776806zM243.775407 284.524051c6.985482-10.478223 18.627952-16.747245 31.255554-16.747245l102.811964 0-119.111422 191.026063L127.619381 458.802869 243.775407 284.524051 243.775407 284.524051zM128.156726 502.059122l103.707539 0 29.464404 0 141.76946 333.780654L274.404058 680.18891 128.156726 502.059122zM307.450761 502.059122l276.822109 0-138.366276 337.183838L307.450761 502.059122zM492.118244 835.571104l138.276719-333.422424 33.85272 0 103.080637 0-258.46283 311.212174L492.118244 835.571104zM637.380444 458.802869l-119.111422-191.026063 102.811964 0c12.627602 0 24.270072 6.269022 31.255554 16.747245l116.156026 174.278818L637.380444 458.802869 637.380444 458.802869z" /></svg>