<?xml version="1.0" standalone="no"?><!DOCTYPE svg PUBLIC "-//W3C//DTD SVG 1.1//EN" "http://www.w3.org/Graphics/SVG/1.1/DTD/svg11.dtd"><svg class="icon" width="200px" height="200.00px" viewBox="0 0 1024 1024" version="1.1" xmlns="http://www.w3.org/2000/svg"><path fill="#1296db" d="M959.1 701.4c-0.2-15.9-8.2-29.1-15.1-37.6 0.7-3.5 1.2-7.6 1.3-12 0.3-13.6-3.3-33.8-22.5-52.4-25.5-25.4-58.7-25.1-83.3-19.8 2.9-17.5 4.3-35.5 4.3-53.8 0-59.5-15.5-115.8-43.5-158.4-29.8-45.2-70.2-70-113.8-70-26.6 0-52.4 9.4-75.3 27.4-17.4-13.7-36.5-22.4-56.3-25.8 3.7-42 39-75 81.9-75v-40c-65.1 0-118.5 51.1-122.1 115.4-19 3.6-37.3 12.2-54.1 25.4-22.9-18-48.6-27.4-75.3-27.4-43.6 0-84.1 24.9-113.8 70C243.4 410 228 466.2 228 525.8c0 42.8 8.1 84.3 23.2 120.1l-18.1-1.1h-1.2c-23.3 0-43.3 14.9-50.7 35.7l-82.9-24.8v25.9L66.1 677l-1.2 98.6 26.5-3-2.3 44 97.1-39.9c9.5 15.2 26.4 25.4 45.7 25.4h0.5L562.2 785c13.3-0.1 26-5.2 35.8-14.2 5.2-4.7 9.3-10.4 12.2-16.5h75.9c-3.5 4.7-5.8 7.7-5.8 7.8L669.8 776l64 64 13.5-8.6c0.3-0.2 30.9-19.6 56-32 0.2-0.1 0.4-0.2 0.5-0.2 2.4 0.5 8.5 4.9 12.5 7.9 14.5 10.5 36.5 26.5 72.1 24.5 17.8-1 32.6-8.4 42.9-21.6 17.9-23 17.1-57.5 15.2-75.2 10.3-12.3 12.7-24.6 12.6-33.4z m-853.6 29.2l0.1-7.6 29.5 4.2-29.6 3.4z m495.6-48.8c-9.8-10.5-23.6-17.1-38.8-17.3L452.8 658c-21.8-35.3-34.2-82.8-34.2-132.1 0-65.2 21-125.1 56.2-160.2 18.5-18.5 39.7-28.3 61.2-28.3s42.6 9.8 61.2 28.3c35.2 35.1 56.2 94.9 56.2 160.2-0.1 62.7-20.1 121-52.3 155.9zM268 525.9c0-51.8 13.1-100.2 36.9-136.4 22.1-33.6 50.7-52.1 80.4-52.1 16.1 0 32 5.5 46.8 16.1-33.9 43-53.6 105.6-53.6 172.4 0 47 9.5 91.7 27.3 129.3l-109-6.5c-18.6-34.4-28.8-77.5-28.8-122.8zM561.7 745h-0.5L420 752.3v-28.9h-40v30.9L231.5 762c-7.3-0.2-13.5-6.5-13.5-13.9v-49.5c0-7.4 6.1-13.6 13.4-13.9l56.7 3.4v35.2h40v-32.8l61.5 3.7 90.6 5.4v13.2h40V702l40.2 2.4h1.2c6.9 0 12.8 5.2 13.7 12 0.1 0.7 0.1 1.3 0.1 1.8v12.7c0 0.4 0 0.8-0.1 1.3-0.5 7.3-6.6 12.8-13.6 12.8zM670 646.1c15.2-36 23.3-77.6 23.3-120.3 0-66.7-19.8-129.4-53.6-172.4 14.8-10.6 30.7-16.1 46.8-16.1 29.7 0 58.3 18.5 80.4 52.1 23.8 36.1 36.9 84.6 36.9 136.4 0 19.6-1.9 38.7-5.6 57h-0.2c-1-0.1-2-0.2-3-0.2h-3.8c-0.7 0-1.3 0.1-1.9 0.1-0.3 0-0.6 0-0.9 0.1-0.7 0.1-1.4 0.1-2.1 0.2-0.1 0-0.3 0-0.4 0.1-0.8 0.1-1.7 0.3-2.5 0.4-0.2 0-0.4 0.1-0.6 0.1-0.6 0.1-1.2 0.2-1.7 0.4-0.2 0.1-0.5 0.1-0.7 0.2-0.5 0.1-1 0.3-1.5 0.4-0.2 0.1-0.4 0.1-0.6 0.2-0.7 0.2-1.3 0.4-2 0.6-5.7 2-10.5 4.9-14.5 8-4.6-2.2-9.9-3.9-16-4.3-1.6-0.1-3.2-0.2-5-0.1-1.8 0.1-3.7 0.3-5.7 0.6-0.4 0.1-0.8 0.1-1.2 0.2-8.5 1.7-18.5 6.3-28.8 16.6-3.2 3.2-6.4 7.2-9 12.2-3 5.8-5.1 12.9-5 21.3 0 3.6 0.5 7.5 1.4 11.6 2.8 12.3 9.1 23.4 15.2 34.2 3.6 6.3 7.8 13.9 9.6 19.3 0.3 0.8 0.5 1.5 0.6 2.2v0.1c-10.2 4.7-20.8 7.1-31.4 7.1h-61.1c17.9-18 33.1-41.1 44.6-68.3z m242.3 66.4l-8.9 7.6 2.2 11.4c2.3 12.1 4 41.2-5.9 53.8-2.1 2.7-5.5 5.8-13.6 6.3-21.5 1.2-33.6-7.6-46.4-16.9-9.5-6.9-21.5-15.6-36.2-15.6-5.6 0-11.6 1.3-18.1 4.5-16.2 8-34.1 18.4-46 25.6l-16.9-16.9c7.3-10 17-23.6 24-34.9l0.1-0.1 2.8-4.8c6.1-10.5 8.5-17 8.5-23.2 0-15.4-8-29.5-15.7-43.2-11-19.4-13.9-26.7-9.2-31.4 3.7-3.7 7.2-5.9 9.4-5.7 0.3 0 0.5 0.1 0.8 0.1h0.1c0.2 0.1 0.5 0.2 0.7 0.3 0 0 0.1 0 0.1 0.1 0.2 0.1 0.5 0.2 0.7 0.4l0.1 0.1c0.2 0.1 0.5 0.3 0.7 0.4l0.1 0.1c0.2 0.2 0.4 0.3 0.7 0.5l0.1 0.1c0.2 0.2 0.4 0.3 0.6 0.5l0.1 0.1c0.2 0.2 0.3 0.3 0.5 0.4 0.1 0.1 0.1 0.1 0.1 0.2 0.1 0.1 0.2 0.2 0.3 0.4l19.8 30.7 14.2-34c0.5-0.8 1.6-2.5 3.3-3.9l0.1-0.1c0.2-0.2 0.5-0.4 0.7-0.6 0.1-0.1 0.2-0.1 0.3-0.2 0.2-0.1 0.4-0.2 0.5-0.3 0.6-0.4 1.3-0.7 2-1 3-1.1 6.7-0.4 10.1 0.7 0.1 0 0.2 0.1 0.3 0.1l0.9 0.3c0.4 0.1 0.8 0.3 1.2 0.5 0.1 0.1 0.3 0.1 0.4 0.2 0.6 0.2 1.1 0.5 1.8 0.8 0.5 0.3 1.1 0.5 1.7 0.8l9.3 5 0.5-0.2 10.1 4.9 3.2-11.5c12.1-5 46.2-16.5 65.8 3.1l0.3 0.3c15 14.5 10 29 8.6 32.3l-8 13.9 13.2 10.4c3.3 2.8 10.4 10.9 10.4 17.2 0.3 3-2 6.6-6.5 10.4z" /></svg>