<?xml version="1.0" standalone="no"?><!DOCTYPE svg PUBLIC "-//W3C//DTD SVG 1.1//EN" "http://www.w3.org/Graphics/SVG/1.1/DTD/svg11.dtd"><svg class="icon" width="200px" height="200.00px" viewBox="0 0 1024 1024" version="1.1" xmlns="http://www.w3.org/2000/svg"><path fill="#1296db" d="M1004 895.2H20c-8.8 0-16-7.2-16-16v-616c0-8.8 7.2-16 16-16h262.4l40-107.2c2.4-6.4 8-10.4 15.2-10.4h364.8c6.4 0 12.8 4 15.2 10.4l40 107.2h247.2c8.8 0 16 7.2 16 16v616c-0.8 8.8-8 16-16.8 16z m-968-32h952v-584H745.6c-6.4 0-12.8-4-15.2-10.4l-40-107.2H348l-40 107.2c-2.4 6.4-8 10.4-15.2 10.4H36v584z"  /><path fill="#1296db" d="M512 790.4c-121.6 0-220-98.4-220-220S390.4 350.4 512 350.4s220 98.4 220 220S633.6 790.4 512 790.4z m0-423.2c-112.8 0-204 91.2-204 204S399.2 775.2 512 775.2s204-91.2 204-204S624.8 367.2 512 367.2z"  /><path fill="#1296db" d="M416 578.4c-4.8 0-8-3.2-8-8 0-57.6 47.2-104 104-104 4.8 0 8 3.2 8 8s-3.2 8-8 8c-48.8 0-88 40-88 88 0 4.8-4 8-8 8zM932 403.2h-128.8c-4.8 0-8-3.2-8-8s3.2-8 8-8h128.8c4.8 0 8 3.2 8 8s-3.2 8-8 8zM224.8 278.4H123.2c-8.8 0-16-7.2-16-16V192c0-34.4 28-62.4 62.4-62.4h8c34.4 0 62.4 28 62.4 62.4v70.4c0.8 8.8-6.4 16-15.2 16z m-85.6-32H208V192c0-16.8-13.6-30.4-30.4-30.4h-8c-16.8 0-30.4 13.6-30.4 30.4v54.4z"  /></svg>