<?xml version="1.0" standalone="no"?><!DOCTYPE svg PUBLIC "-//W3C//DTD SVG 1.1//EN" "http://www.w3.org/Graphics/SVG/1.1/DTD/svg11.dtd"><svg class="icon" width="200px" height="200.00px" viewBox="0 0 1024 1024" version="1.1" xmlns="http://www.w3.org/2000/svg"><path fill="#1296db" d="M599.04 497.92c-19.84 0-36.48 0-47.36-1.92-52.48-9.6-53.12-77.44-53.12-80l0-186.24-275.2 0 0 535.04 577.92 0L801.28 618.24C801.28 499.2 674.56 498.56 599.04 497.92zM769.28 732.16l-513.92 0L255.36 710.4l513.92 0L769.28 732.16zM769.28 678.4l-513.92 0 0-417.28 211.2 0 0 39.04-80.64 0 0 32 80.64 0 0 40.96-80.64 0 0 32 80.64 0 0 9.6c0 7.04 0.64 15.36 2.56 24.32l-83.2 0 0 32 92.8 0c11.52 25.6 32 49.28 67.2 55.68 13.44 2.56 31.36 2.56 53.12 2.56 93.44 0.64 170.24 7.68 170.24 88.32L769.28 678.4z" /></svg>