<?xml version="1.0" standalone="no"?><!DOCTYPE svg PUBLIC "-//W3C//DTD SVG 1.1//EN" "http://www.w3.org/Graphics/SVG/1.1/DTD/svg11.dtd"><svg t="1744291881311" class="icon" viewBox="0 0 1024 1024" version="1.1" xmlns="http://www.w3.org/2000/svg" p-id="170611" xmlns:xlink="http://www.w3.org/1999/xlink" width="200" height="200"><path d="M512.54 156.23a353.21 353.21 0 1 1-138 27.83 352.25 352.25 0 0 1 138-27.83m0-60C283.61 96.23 98 281.81 98 510.74s185.61 414.51 414.54 414.51 414.51-185.58 414.51-414.51S741.47 96.23 512.54 96.23z" p-id="170612"></path><path d="M512 478a29.89 29.89 0 0 1-21.13-8.71l-133-132a30 30 0 1 1 42.26-42.58l133 132A30 30 0 0 1 512 478z" p-id="170613"></path><path d="M512 478a30 30 0 0 1-21.21-51.21l128-128a30 30 0 0 1 42.42 42.42l-128 128A29.88 29.88 0 0 1 512 478z" p-id="170614"></path><path d="M660 529H366a30 30 0 0 1 0-60h294a30 30 0 0 1 0 60z m0 95H366a30 30 0 0 1 0-60h294a30 30 0 0 1 0 60z" p-id="170615"></path><path d="M512 776a30 30 0 0 1-30-30V448a30 30 0 0 1 60 0v298a30 30 0 0 1-30 30z" p-id="170616"></path></svg>