<?xml version="1.0" standalone="no"?><!DOCTYPE svg PUBLIC "-//W3C//DTD SVG 1.1//EN" "http://www.w3.org/Graphics/SVG/1.1/DTD/svg11.dtd"><svg class="icon" width="200px" height="200.00px" viewBox="0 0 1024 1024" version="1.1" xmlns="http://www.w3.org/2000/svg"><path fill="#1296db" d="M616.5 362.6l-98.2 98.1-98.1-98.1-49.5 49.5 86.2 86.2h-65.4v70h93.9v40.4h-93.9v70h93.9v118.2h70V678.7h93.9v-70h-93.9v-40.4h93.9v-70h-69.5l86.2-86.2zM910.8 424.8c-17.6 4-29.4 20.8-26.9 38.8 2.4 16.9 3.5 34.1 3.5 51.3 0 204.4-167.1 370.5-371.9 368.9-203.1-1.7-367.3-168.6-365.8-371.8 1.4-185.5 139-339 319.8-362.8 17.9-2.4 31-18.2 30.2-36.3-0.9-20.5-19.3-35.8-39.7-33.1-98.4 13.1-189 59-258.5 131.5-78.6 82.1-121.8 189.9-121.8 303.5 0 59.2 11.6 116.7 34.5 170.9 22.1 52.3 53.7 99.2 94 139.5s87.2 71.9 139.5 94c54.1 22.9 111.6 34.5 170.9 34.5s116.7-11.6 170.9-34.5c52.3-22.1 99.2-53.7 139.5-94s71.9-87.2 94-139.5c22.9-54.1 34.5-111.6 34.5-170.9 0-20.4-1.4-40.8-4.2-60.9-2.8-20.2-22.5-33.6-42.5-29.1zM922.7 180.6H712.5l49.8-49.8c16.8-16.8 16.8-44 0-60.8-16.8-16.8-44-16.8-60.8 0L578.4 193.2c-16.8 16.8-16.8 44 0 60.8l123.2 123.2c16.8 16.8 44 16.8 60.8 0 16.8-16.8 16.8-44 0-60.8l-49.8-49.8h210.2c23.7 0 43-19.2 43-43-0.2-23.7-19.4-43-43.1-43z" /></svg>