<?xml version="1.0" standalone="no"?><!DOCTYPE svg PUBLIC "-//W3C//DTD SVG 1.1//EN" "http://www.w3.org/Graphics/SVG/1.1/DTD/svg11.dtd"><svg class="icon" width="200px" height="200.00px" viewBox="0 0 1024 1024" version="1.1" xmlns="http://www.w3.org/2000/svg"><path fill="#1296db" d="M899.7 511.5c0 214.1-173.6 387.7-387.7 387.7S124.3 725.6 124.3 511.5 297.9 123.9 512 123.9c23.1 0 45.7 2 75.1 5.9V68.6c-29.6-3.3-52.1-5.1-75.1-5.1-247.4 0-448 200.6-448 448s200.6 448 448 448 448-200.6 448-448c0-21.8-1.6-43.3-4.6-64.3h-61c3.5 21 5.3 42.4 5.3 64.3zM921.9 218.4l-164.5-95v68.4H576.1V256h181.3v57.4z m-238 144.7l-40.7-40.8-112.9 112.9-112.9-112.9-40.8 40.8 110.3 110.2H385.4V531H492v38.8H385.4v57.7H492V743h57.7V627.5h106.6v-57.7H549.7V531h106.6v-57.7h-82.6z" /></svg>