<?xml version="1.0" standalone="no"?><!DOCTYPE svg PUBLIC "-//W3C//DTD SVG 1.1//EN" "http://www.w3.org/Graphics/SVG/1.1/DTD/svg11.dtd"><svg class="icon" width="200px" height="200.00px" viewBox="0 0 1024 1024" version="1.1" xmlns="http://www.w3.org/2000/svg"><path fill="#1296db" d="M362.7 986.7c-11.6 0-22.6-5.8-31-17.4l-118-160.6L53.8 690c-7.7-5.2-16.8-16.8-16.8-31 0-11 2.6-25.8 13.5-34.2l0.6-0.6 59.3-63.2c9-9 20.6-14.2 31.6-14.2 2.6 0 8.4 0 13.5 2.6l0.6 0.6L266 579.7l132.9-133.5-297.4-161.9c-11.6-5.8-20-17.4-23.2-32.3-2.6-15.5 1.9-31 11.6-40.6l83.2-83.2c7.7-7.7 19.4-12.3 32.9-12.3 3.9 0 7.1 0.6 11 1.3l411.5 98 93.5-93.5c41.3-37.4 80.6-61.9 120.6-74.2 20-7.1 39.3-10.3 56.1-10.3 25.2 0 46.4 7.7 63.2 21.9l3.2 3.2c24.5 27.7 28.4 68.4 11.6 119.3l-1.3 4.5v1.3c-12.9 41.3-36.8 80.6-72.2 116.1L809 396.4l98 434.7c3.2 18.1-3.2 34.8-17.4 46.4L807 940.1c-9 5.8-18.1 8.4-29 8.4-2.6 0-4.5 0-9-1.9l-2.6-8.4-1.9 6.5c-11.6-4.5-20.6-12.3-27.1-23.2l-161.3-298-133.4 133.6 29 109.7c5.2 13.5 0.6 30.3-11.6 42.6L398.2 972c-9 9-20.6 14.8-31.6 14.8h-3.9z m3.3-45.8l52.9-56.8-38.7-135.5 205.1-203.8L780.7 899l76.1-54.8L751.7 383l112.2-114.8c30.3-27.1 52.9-61.9 65.1-101.3 11.6-41.9 3.2-58.1-0.6-65.8l-1.3-2.6-4.5-1.9c-5.2-2.6-13.5-7.1-27.7-7.1-11 0-23.2 2.6-37.4 7.7-39.3 15.5-74.8 38.1-101.3 64.5L640.7 273.3l-445-104.4-75.5 74.8 361.2 195.4L276.3 641l-136.7-38.1L82.8 659l165.1 123.8L366 940.9z" /></svg>