<?xml version="1.0" standalone="no"?><!DOCTYPE svg PUBLIC "-//W3C//DTD SVG 1.1//EN" "http://www.w3.org/Graphics/SVG/1.1/DTD/svg11.dtd"><svg class="icon" width="200px" height="200.00px" viewBox="0 0 1024 1024" version="1.1" xmlns="http://www.w3.org/2000/svg"><path fill="#1296db" d="M802.5 97h-581C153 97 97 153 97 221.5v581C97 871.3 152.7 927 221.5 927h684.8c11.5 0 20.8-9.3 20.8-20.8v-20.8c-34.3 0-62.3-27.9-62.3-62.3S892.7 761 927 761V221.5C927 153 871 97 802.5 97z m-83 136.7l-23.3-23.3c-5-5-11.8-6.5-18.2-5.4-6.4-1.1-13.3 0.4-18.2 5.4l-23.3 23.3v-95.2h83v95.2z m-581-12.2c0-45.8 37.2-83 83-83H595v145.2c0 2.7 0.6 5.4 1.6 7.9 2.1 5.1 6.1 9.1 11.2 11.2 5.1 2.1 10.8 2.1 15.9 0 2.5-1.1 4.8-2.6 6.7-4.5l47.6-47.6 47.6 47.6c1.9 1.9 4.2 3.4 6.7 4.5 5.1 2.1 10.8 2.1 15.9 0s9.1-6.1 11.2-11.2c1-2.5 1.6-5.2 1.6-7.9V138.5h41.5c45.8 0 83 37.2 83 83v498h-747v-498zM844 823.3c0 24.9 11.2 47 28.6 62.3H221.5c-45.8 0-83-37.2-83-83V761h734.1c-17.4 15.2-28.6 37.3-28.6 62.3z" /></svg>