<?xml version="1.0" standalone="no"?><!DOCTYPE svg PUBLIC "-//W3C//DTD SVG 1.1//EN" "http://www.w3.org/Graphics/SVG/1.1/DTD/svg11.dtd"><svg class="icon" width="200px" height="172.25px" viewBox="0 0 1189 1024" version="1.1" xmlns="http://www.w3.org/2000/svg"><path fill="#1296db" d="M930.6265625 141.21142578h-717.65419922c-39.61845703 0.04394531-71.72314453 32.15126953-71.76269531 71.76621094v478.43085937c0.04394531 39.61494141 32.146875 71.71787109 71.75742187 71.76269532h334.90810547v71.77060546h-119.60771484c-13.21083984 0.00263672-23.9203125 10.71210937-23.9203125 23.92294922s10.70947266 23.92207031 23.91943359 23.92294922h287.06572266c13.21083984-0.00263672 23.9203125-10.71210937 23.9203125-23.92294922s-10.70947266-23.92119141-23.91943359-23.92294922h-119.60771485v-71.76269531h334.90283203c39.61845703-0.04394531 71.72314453-32.15126953 71.76269532-71.76621094v-478.43085937c-0.03955078-39.61933594-32.14335938-71.72666016-71.75742188-71.77060547zM212.97412109 189.05908203h717.65419922c13.20820312 0.00966797 23.91240234 10.71474609 23.92294922 23.92207031v406.66728516h-765.4921875v-406.66552734c0.00966797-13.20556641 10.71035156-23.90888672 23.91240234-23.92294922zM930.6265625 715.33320312h-717.65419922c-13.20820312-0.00966797-23.91240234-10.71474609-23.92294922-23.92207031v-23.91591797h765.4921875v23.92294922c-0.01494141 13.20292969-10.71210937 23.90009766-23.91416015 23.91503906z" /></svg>