<?xml version="1.0" standalone="no"?><!DOCTYPE svg PUBLIC "-//W3C//DTD SVG 1.1//EN" "http://www.w3.org/Graphics/SVG/1.1/DTD/svg11.dtd"><svg t="1744164370155" class="icon" viewBox="0 0 1024 1024" version="1.1" xmlns="http://www.w3.org/2000/svg" p-id="158106" xmlns:xlink="http://www.w3.org/1999/xlink" width="200" height="200"><path d="M739.555556 192a85.333333 85.333333 0 0 0-60.586667-25.031111H320.284444a85.333333 85.333333 0 0 0-85.333333 85.333333v540.444445a85.333333 85.333333 0 0 0 85.333333 85.333333h357.546667a85.333333 85.333333 0 0 0 85.333333-85.333333V252.871111A85.333333 85.333333 0 0 0 739.555556 192z m-61.724445 650.524444H320.284444a50.631111 50.631111 0 0 1-50.631111-50.631111v-65.706666h459.377778v65.706666a51.484444 51.484444 0 0 1-15.644444 35.84 49.208889 49.208889 0 0 1-35.555556 14.791111zM268.515556 252.871111a51.768889 51.768889 0 0 1 50.915555-50.631111h357.831111a50.631111 50.631111 0 0 1 50.631111 50.631111v438.897778H268.515556z" p-id="158107"></path><path d="M489.244444 768a19.626667 19.626667 0 0 0 0 33.848889 19.057778 19.057778 0 0 0 9.671112 2.56 19.911111 19.911111 0 0 0 9.955555-2.56 19.626667 19.626667 0 0 0 0-33.848889 20.195556 20.195556 0 0 0-19.626667 0zM602.453333 401.635556a17.635556 17.635556 0 0 0 17.92-17.635556 17.92 17.92 0 0 0-17.92-17.635556h-36.693333l17.351111-38.968888a17.635556 17.635556 0 0 0 0-13.653334 16.497778 16.497778 0 0 0-9.102222-9.386666 19.057778 19.057778 0 0 0-14.222222 0 16.782222 16.782222 0 0 0-9.102223 9.102222l-23.608888 53.76h-47.217778L455.111111 312.888889a18.204444 18.204444 0 0 0-23.324444-9.102222 17.635556 17.635556 0 0 0-8.817778 23.04l17.351111 38.968889h-44.657778a17.92 17.92 0 0 0 0 35.555555h85.333334v66.275556h-84.195556a18.204444 18.204444 0 0 0-19.057778 17.635555 17.92 17.92 0 0 0 17.92 17.635556h85.333334v67.413333a17.92 17.92 0 0 0 35.555555 0V503.466667h85.333333a17.635556 17.635556 0 0 0 0-35.271111h-85.333333v-66.56z" p-id="158108"></path></svg>