<?xml version="1.0" standalone="no"?><!DOCTYPE svg PUBLIC "-//W3C//DTD SVG 1.1//EN" "http://www.w3.org/Graphics/SVG/1.1/DTD/svg11.dtd"><svg class="icon" width="200px" height="200.00px" viewBox="0 0 1024 1024" version="1.1" xmlns="http://www.w3.org/2000/svg"><path fill="#1296db" d="M218.01 798.595a29.313 29.313 0 0 0 22.092 10.018c1.189 0 2.378-0.092 3.613-0.23a29.413 29.413 0 0 0 22.55-15.712l143.855-279.77 128.576 125.762c6.312 6.13 14.957 9.173 23.784 8.21a29.362 29.362 0 0 0 21.408-13.172l168.28-257.838 27.877 20.721c11.916 8.85 25.18 13.516 38.376 13.516 26.781 0 48.6-18.662 55.553-47.524l49.72-205.97c5.876-24.286-0.687-39.268-7.227-47.569-13.905-17.678-39.977-20.514-65.18-4.826l-177.36 110.007c-18.685 11.572-29.845 29.433-30.669 48.988-0.823 19.554 8.827 38.262 26.438 51.389l35.174 26.118L554.2 571.588 422.768 443.011a29.37 29.37 0 0 0-25.272-7.982c-9.194 1.487-17.153 7.273-21.43 15.552L233.699 727.356l-79.085-90.086V283.856c0-36.042 29.32-65.363 65.364-65.363h387.856c16.238 0 29.387-13.173 29.387-29.388 0-16.238-13.149-29.412-29.387-29.412H219.977c-68.451 0-124.14 55.713-124.14 124.162V805.02c0 68.473 55.689 124.163 124.14 124.163h532.829c68.452 0 124.14-55.69 124.14-124.163V471.782c0-16.215-13.151-29.39-29.39-29.39s-29.387 13.175-29.387 29.39v333.24c0 36.045-29.32 65.387-65.364 65.387H219.977c-36.043 0-65.364-29.343-65.364-65.386v-78.627l63.397 72.2z m484.847-532.898c0.481-0.434 1.168-0.96 2.06-1.508l155.655-96.536-43.728 181.087c-0.16 0.595-0.319 1.098-0.458 1.533a17.76 17.76 0 0 1-1.258-0.893L704.78 267.39c-0.824-0.64-1.465-1.213-1.923-1.693z"  /></svg>