<?xml version="1.0" standalone="no"?><!DOCTYPE svg PUBLIC "-//W3C//DTD SVG 1.1//EN" "http://www.w3.org/Graphics/SVG/1.1/DTD/svg11.dtd"><svg class="icon" width="200px" height="200.00px" viewBox="0 0 1024 1024" version="1.1" xmlns="http://www.w3.org/2000/svg"><path fill="#1296db" d="M573.952 604.16c5.12 3.072 10.752 5.12 15.872 5.12 5.632 0 10.752-1.536 16.384-5.12l1.024-0.512c33.792-23.04 206.848-144.896 273.408-266.752 18.432-28.672 28.16-60.928 28.16-93.696 0-95.744-77.824-173.568-173.568-173.568-68.608 0-118.272 53.76-144.384 83.968-24.576-28.16-76.288-83.968-144.384-83.968-95.744 0-173.568 77.824-173.568 173.568 0 33.792 9.728 66.048 27.648 93.696 71.68 134.656 271.36 266.24 273.408 267.264z m160.256-476.672c63.488 0 115.2 51.712 115.2 115.2 0 22.528-6.144 44.032-18.432 62.464-0.512 0.512-0.512 1.024-1.024 1.536l-0.512 0.512c-51.2 95.232-182.272 195.584-239.616 236.544C532.48 502.784 400.896 401.92 350.208 307.2l-0.512-1.024c0-0.512-0.512-1.024-1.024-1.536-11.776-18.432-18.432-40.448-18.432-62.464 0-62.976 51.712-114.688 115.2-114.688 46.08 0 84.992 45.568 105.984 70.144 13.312 15.872 22.528 26.112 38.4 26.112s24.576-10.24 38.4-25.6c20.992-25.088 59.904-70.656 105.984-70.656z"  /><path fill="#1296db" d="M882.176 589.824c-10.752-6.144-22.016-9.216-32.768-9.216-32.256 0-57.344 25.6-68.096 36.864-28.672 29.696-63.488 59.392-79.36 72.704-6.656-2.56-14.336-4.096-23.552-4.608-53.76-3.072-139.264-12.8-159.232-25.088-22.528-13.312-40.448-26.112-56.32-37.888l-2.56-2.048c-47.616-33.792-84.992-60.928-177.664-60.928-26.112 0-49.152 6.656-74.24 14.336l-2.56 1.024c-22.016 6.656-43.008 13.312-67.584 13.312-31.744 0-57.856 26.112-57.856 57.856V780.8c0 31.744 26.112 57.856 57.856 57.856 57.856 0 129.536 3.072 144.896 7.68 31.232 10.24 105.984 54.272 129.536 69.12l1.024 1.024h0.512c9.728 5.12 20.992 8.192 32.256 8.192H691.2c28.16 0 58.368-25.088 69.12-43.008 12.8-20.992 48.128-71.68 142.848-192.512 3.072-4.096 5.12-6.656 5.12-6.656 0-0.512 0.512-0.512 0.512-1.024 0.512-1.024 1.536-2.048 2.048-3.584 15.872-30.72 3.584-69.12-28.672-88.064z m-205.824 174.08l-183.296 9.728c-13.312-0.512-50.688-27.136-68.608-39.936-3.072-2.048-5.632-4.096-8.704-6.144-3.072-2.048-5.632-4.096-8.704-6.144-14.848-10.752-26.112-17.408-35.328-22.016-4.096-2.048-8.192-3.072-12.8-3.072-10.752 0-20.992 6.144-26.112 15.872-7.168 13.824-1.536 31.744 12.8 39.424 9.728 4.608 22.016 13.312 35.328 22.528 3.584 2.56 6.656 4.608 10.24 7.168l1.536 1.024C429.056 807.936 463.36 832 494.08 832l183.296-9.728c36.864-0.512 67.072-30.72 67.072-67.584 0-6.656-1.024-13.824-3.072-20.48 22.528-18.432 54.784-47.104 81.408-74.752 12.288-12.8 20.48-18.944 26.112-18.944 1.024 0 2.56 0.512 3.584 1.024 4.096 2.56 7.68 7.168 6.656 11.776C849.92 665.088 742.4 801.28 709.12 855.552c-3.072 5.12-15.36 13.824-18.944 14.336H445.44c-1.536 0-3.072-0.512-4.096-1.024l-0.512-0.512c-29.696-18.432-102.912-61.952-140.288-74.24-31.744-10.24-140.288-10.752-162.816-11.264V649.216c35.328 0 65.024-9.728 87.04-16.384 20.48-6.656 37.888-12.288 56.832-12.288 74.752 0 101.376 18.944 144.896 50.688l2.56 2.048c16.384 11.776 35.328 25.6 58.88 39.936 11.264 7.168 29.696 12.8 57.856 18.432 49.152 9.728 107.52 13.312 126.976 14.336h3.072a9.178 9.178 0 0 1 9.216 9.216c0.512 4.608-3.584 8.704-8.704 8.704z"  /></svg>