<?xml version="1.0" standalone="no"?><!DOCTYPE svg PUBLIC "-//W3C//DTD SVG 1.1//EN" "http://www.w3.org/Graphics/SVG/1.1/DTD/svg11.dtd"><svg class="icon" width="200px" height="200.00px" viewBox="0 0 1024 1024" version="1.1" xmlns="http://www.w3.org/2000/svg"><path fill="#1296db" d="M804.126 41.834l30.805 24.719-107.666 134.178-30.805-24.719 107.666-134.178z"  /><path fill="#1296db" d="M973.376 192.522l-132.527 109.713-25.188-30.427 132.527-109.713 25.188 30.427z"  /><path fill="#1296db" d="M551.882 309.999c-9.449-9.449-22.829-14.868-36.7-14.868-13.886 0-27.279 5.421-36.714 14.882l-168.659 168.659c-9.803 9.803-15.196 22.842-15.196 36.714 0 13.899 5.407 26.938 15.196 36.714l168.619 168.619c9.803 9.83 22.855 15.237 36.741 15.237 13.913 0 26.951-5.407 36.714-15.196l168.633-168.619c9.817-9.803 15.223-22.855 15.223-36.741 0-13.899-5.407-26.938-15.196-36.714l-168.659-168.687zM692.606 524.179l-168.687 168.659c-4.697 4.71-12.794 4.751-17.558-0.041l-168.633-168.646c-2.362-2.349-3.618-5.393-3.618-8.766 0-3.373 1.257-6.403 3.632-8.779l168.673-168.659c2.102-2.102 5.297-3.305 8.766-3.305s6.676 1.201 8.766 3.305l168.673 168.687c2.362 2.349 3.618 5.393 3.618 8.766 0 3.359-1.257 6.389-3.632 8.779z"  /><path fill="#1296db" d="M959.556 326.519l-35.908 15.81c25.299 57.467 38.121 118.539 38.121 181.507 0 248.764-202.383 451.147-451.147 451.147s-451.147-202.383-451.147-451.147 202.383-451.147 451.147-451.147c48.387 0 96.228 7.742 142.213 23.006l12.356-37.233c-49.985-16.589-101.99-24.999-154.57-24.999-270.404 0-490.387 219.983-490.387 490.387s219.983 490.387 490.387 490.387 490.387-219.983 490.387-490.387c0-68.458-13.954-134.841-41.452-197.331z"  /></svg>