<?xml version="1.0" standalone="no"?><!DOCTYPE svg PUBLIC "-//W3C//DTD SVG 1.1//EN" "http://www.w3.org/Graphics/SVG/1.1/DTD/svg11.dtd"><svg class="icon" width="200px" height="200.00px" viewBox="0 0 1024 1024" version="1.1" xmlns="http://www.w3.org/2000/svg"><path fill="#1296db" d="M607.8464 581.2224a30.3104 30.3104 0 1 0 0-60.416h-19.456l22.9376-36.0448a29.4912 29.4912 0 0 0-9.4208-40.96h-1.6384a33.1776 33.1776 0 0 0-43.8272 10.24l-42.3936 66.7648h-4.3008l-42.3936-67.1744a32.9728 32.9728 0 0 0-43.6224-10.24 29.0816 29.0816 0 0 0-12.0832 39.5264 8.3968 8.3968 0 0 0 0 1.8432l22.9376 36.0448h-19.456a30.3104 30.3104 0 1 0 0 60.416h63.8976v37.6832h-62.8736a30.3104 30.3104 0 1 0 0 61.44h63.8976v130.8672a31.9488 31.9488 0 0 0 63.8976 0v-131.8912h63.8976a30.3104 30.3104 0 1 0 0-61.44h-63.8976v-36.6592zM796.4672 0H227.7376a118.5792 118.5792 0 0 0-118.3744 118.5792v786.8416A118.5792 118.5792 0 0 0 227.7376 1024h568.5248a118.784 118.784 0 0 0 118.3744-118.5792V118.5792A118.3744 118.3744 0 0 0 796.4672 0z m57.1392 905.4208A57.1392 57.1392 0 0 1 796.4672 962.56H227.7376a57.344 57.344 0 0 1-57.344-57.344V251.6992c75.3664 80.0768 202.1376 131.072 341.6064 131.072s266.24-51.2 342.016-131.8912z m0-766.976a15.5648 15.5648 0 0 0-1.8432 3.6864C812.032 247.808 672.1536 321.536 512 321.536S212.7872 248.4224 172.2368 143.36a18.2272 18.2272 0 0 0-1.6384-3.4816V118.3744A57.1392 57.1392 0 0 1 227.7376 61.44h568.5248a57.344 57.344 0 0 1 57.344 57.344z" /></svg>