<?xml version="1.0" standalone="no"?><!DOCTYPE svg PUBLIC "-//W3C//DTD SVG 1.1//EN" "http://www.w3.org/Graphics/SVG/1.1/DTD/svg11.dtd"><svg class="icon" width="200px" height="112.53px" viewBox="0 0 1820 1024" version="1.1" xmlns="http://www.w3.org/2000/svg"><path fill="#1296db" d="M1043.418074 373.722074c26.699852-29.127111 58.254222-72.817778 58.254222-118.935704 0-26.699852-7.281778-48.545185-24.272592-65.536-31.55437-31.55437-87.381333-31.55437-150.490074-31.55437h-46.117926c-58.254222 0-106.799407-2.427259-138.353778 29.127111-16.990815 16.990815-24.272593 38.836148-24.272593 67.963259 0 65.536 58.254222 123.790222 84.954074 145.635556 9.709037 9.709037 26.699852 7.281778 33.98163-2.427259 9.709037-9.709037 7.281778-26.699852-2.427259-33.98163-41.263407-36.408889-67.963259-77.672296-67.963259-109.226667 0-24.272593 7.281778-31.55437 9.709037-33.981629 16.990815-14.563556 58.254222-14.563556 104.372148-14.563556h50.972444c50.972444 0 99.51763 0 116.508445 16.990815 0 2.427259 7.281778 9.709037 7.281777 31.55437 0 29.127111-26.699852 70.390519-70.390518 106.799408-7.281778 4.854519-9.709037 14.563556-7.281778 21.845333 2.427259 7.281778 7.281778 14.563556 14.563556 19.418074 89.808593 33.98163 184.471704 126.217481 184.471703 252.434963 0 118.935704-72.817778 162.62637-266.998518 162.626371s-266.998519-43.690667-266.998519-162.626371c0-72.817778 33.98163-145.635556 94.663111-199.035259 9.709037-9.709037 12.136296-24.272593 2.42726-33.98163-9.709037-9.709037-24.272593-12.136296-33.98163-2.427259-70.390519 63.108741-111.653926 148.062815-111.653926 235.444148 0 211.171556 213.598815 211.171556 315.543704 211.171556 101.944889 0 315.543704 0 315.543704-211.171556 2.427259-116.508444-72.817778-225.735111-182.044445-281.562074z m0 0M1009.436444 492.657778c9.709037-9.709037 9.709037-24.272593 0-33.98163-9.709037-9.709037-24.272593-9.709037-33.981629 0l-60.681482 58.254222-60.681481-58.254222c-9.709037-9.709037-24.272593-9.709037-33.98163 0-9.709037 9.709037-9.709037 24.272593 0 33.98163l67.963259 65.536v14.563555h-48.545185c-14.563556 0-24.272593 9.709037-24.272592 24.272593 0 14.563556 9.709037 24.272593 24.272592 24.272593h48.545185v24.272592h-48.545185c-14.563556 0-24.272593 9.709037-24.272592 24.272593 0 14.563556 9.709037 24.272593 24.272592 24.272592h48.545185v50.972445c0 14.563556 9.709037 24.272593 24.272593 24.272592 14.563556 0 24.272593-9.709037 24.272593-24.272592v-50.972445h48.545185c14.563556 0 24.272593-9.709037 24.272592-24.272592 0-14.563556-9.709037-24.272593-24.272592-24.272593h-48.545185v-24.272592h48.545185c14.563556 0 24.272593-9.709037 24.272592-24.272593 0-14.563556-9.709037-24.272593-24.272592-24.272593h-48.545185v-9.709037l72.817777-70.390518z m0 0" /></svg>