<?xml version="1.0" standalone="no"?><!DOCTYPE svg PUBLIC "-//W3C//DTD SVG 1.1//EN" "http://www.w3.org/Graphics/SVG/1.1/DTD/svg11.dtd"><svg class="icon" width="200px" height="200.00px" viewBox="0 0 1024 1024" version="1.1" xmlns="http://www.w3.org/2000/svg"><path fill="#1296db" d="M825.702 942.723l-96.098-115.811c54.516-3.771 97.718-49.321 97.718-104.779V301.867c0-57.918-47.12-105.039-105.039-105.039h-121.24V175.14c0-16.282-14.44-29.036-32.875-29.036H455.833c-18.435 0-32.876 12.754-32.876 29.036v21.688h-121.24c-57.919 0-105.039 47.121-105.039 105.039v420.266c0 55.458 43.202 101.008 97.719 104.78l-96.098 115.81c-7.054 8.5-5.881 21.109 2.62 28.163a19.92 19.92 0 0 0 12.761 4.609c5.745 0 11.447-2.463 15.402-7.229L341.99 832.198a20.01 20.01 0 0 0 3.047-5.025h333.929a19.988 19.988 0 0 0 3.046 5.025L794.92 968.266c3.956 4.767 9.657 7.229 15.402 7.229 4.5 0 9.027-1.512 12.761-4.609 8.499-7.054 9.672-19.663 2.619-28.163zM462.957 186.105h98.086v10.723h-98.086v-10.723zM236.678 722.133V301.867c0-35.863 29.176-65.039 65.039-65.039h149.521c1.5 0.178 3.032 0.277 4.596 0.277h112.335c1.563 0 3.096-0.099 4.596-0.277h149.52c35.862 0 65.039 29.176 65.039 65.039v420.266c0 35.862-29.177 65.039-65.039 65.039H301.717c-35.863 0-65.039-29.177-65.039-65.039z"  /><path fill="#1296db" d="M669.21 883H354.79c-11.046 0-20 8.954-20 20s8.954 20 20 20h314.42c11.046 0 20-8.954 20-20s-8.954-20-20-20zM683.099 585c43.95 0 79.707-36.865 79.707-82.18V389.179c0-45.314-35.757-82.179-79.707-82.179H340.902c-43.951 0-79.708 36.865-79.708 82.179V502.82c0 45.314 35.757 82.18 79.708 82.18h342.197z m-381.905-82.18V389.179c0-23.258 17.813-42.179 39.708-42.179h342.196c21.895 0 39.707 18.921 39.707 42.179V502.82c0 23.258-17.813 42.18-39.707 42.18H340.902c-21.895 0-39.708-18.922-39.708-42.18zM334.319 733.125c23.779 0 43.125-19.346 43.125-43.125s-19.346-43.125-43.125-43.125-43.125 19.346-43.125 43.125 19.346 43.125 43.125 43.125zM688.527 646.875c-23.779 0-43.125 19.346-43.125 43.125s19.346 43.125 43.125 43.125 43.125-19.346 43.125-43.125-19.345-43.125-43.125-43.125z"  /><path fill="#1296db" d="M393 380c5.523 0 10-4.477 10-10s-4.477-10-10-10h-43.725c-8.729 0-16.935 3.399-23.106 9.57a32.785 32.785 0 0 0-9.339 19.214c-0.655 5.484 3.259 10.46 8.743 11.115 0.403 0.048 0.803 0.072 1.199 0.072 4.993 0 9.31-3.734 9.917-8.815a12.536 12.536 0 0 1 3.623-7.444 12.591 12.591 0 0 1 8.964-3.713H393zM326.598 403.706c-5.523 0-10 4.477-10 10v0.667c0 5.523 4.477 10 10 10s10-4.477 10-10v-0.667c0-5.523-4.477-10-10-10z"  /></svg>